<?xml version="1.0" encoding="utf-8" standalone="no"?>
<!DOCTYPE svg PUBLIC "-//W3C//DTD SVG 1.1//EN"
  "http://www.w3.org/Graphics/SVG/1.1/DTD/svg11.dtd">
<svg xmlns:xlink="http://www.w3.org/1999/xlink" width="432pt" height="432pt" viewBox="0 0 432 432" xmlns="http://www.w3.org/2000/svg" version="1.1">
 <metadata>
  <rdf:RDF xmlns:dc="http://purl.org/dc/elements/1.1/" xmlns:cc="http://creativecommons.org/ns#" xmlns:rdf="http://www.w3.org/1999/02/22-rdf-syntax-ns#">
   <cc:Work>
    <dc:type rdf:resource="http://purl.org/dc/dcmitype/StillImage"/>
    <dc:date>2026-01-20T16:11:31.378245</dc:date>
    <dc:format>image/svg+xml</dc:format>
    <dc:creator>
     <cc:Agent>
      <dc:title>Matplotlib v3.10.8, https://matplotlib.org/</dc:title>
     </cc:Agent>
    </dc:creator>
   </cc:Work>
  </rdf:RDF>
 </metadata>
 <defs>
  <style type="text/css">*{stroke-linejoin: round; stroke-linecap: butt}</style>
 </defs>
 <g id="figure_1">
  <g id="patch_1">
   <path d="M 0 432 
L 432 432 
L 432 0 
L 0 0 
z
" style="fill: #ffffff"/>
  </g>
  <g id="axes_1">
   <g id="patch_2">
    <path d="M 46.64 309.64 
L 421.2 309.64 
L 421.2 122.36 
L 46.64 122.36 
z
" style="fill: #ffffff"/>
   </g>
   <g id="patch_3">
    <path d="M 61.354857 294.925143 
L 85.433714 294.925143 
L 85.433714 270.846286 
L 61.354857 270.846286 
z
" clip-path="url(#p420dc2eec4)" style="fill: #ffffff; stroke: #dddddd; stroke-width: 0.8; stroke-linejoin: miter"/>
   </g>
   <g id="patch_4">
    <path d="M 61.354857 268.170857 
L 85.433714 268.170857 
L 85.433714 244.092 
L 61.354857 244.092 
z
" clip-path="url(#p420dc2eec4)" style="fill: #ffffff; stroke: #dddddd; stroke-width: 0.8; stroke-linejoin: miter"/>
   </g>
   <g id="patch_5">
    <path d="M 61.354857 241.416571 
L 85.433714 241.416571 
L 85.433714 217.337714 
L 61.354857 217.337714 
z
" clip-path="url(#p420dc2eec4)" style="fill: #ffffff; stroke: #dddddd; stroke-width: 0.8; stroke-linejoin: miter"/>
   </g>
   <g id="patch_6">
    <path d="M 61.354857 214.662286 
L 85.433714 214.662286 
L 85.433714 190.583429 
L 61.354857 190.583429 
z
" clip-path="url(#p420dc2eec4)" style="fill: #ffffff; stroke: #dddddd; stroke-width: 0.8; stroke-linejoin: miter"/>
   </g>
   <g id="patch_7">
    <path d="M 61.354857 187.908 
L 85.433714 187.908 
L 85.433714 163.829143 
L 61.354857 163.829143 
z
" clip-path="url(#p420dc2eec4)" style="fill: #ffffff; stroke: #dddddd; stroke-width: 0.8; stroke-linejoin: miter"/>
   </g>
   <g id="patch_8">
    <path d="M 61.354857 161.153714 
L 85.433714 161.153714 
L 85.433714 137.074857 
L 61.354857 137.074857 
z
" clip-path="url(#p420dc2eec4)" style="fill: #ffffff; stroke: #dddddd; stroke-width: 0.8; stroke-linejoin: miter"/>
   </g>
   <g id="patch_9">
    <path d="M 88.109143 294.925143 
L 112.188 294.925143 
L 112.188 270.846286 
L 88.109143 270.846286 
z
" clip-path="url(#p420dc2eec4)" style="fill: #ffffff; stroke: #dddddd; stroke-width: 0.8; stroke-linejoin: miter"/>
   </g>
   <g id="patch_10">
    <path d="M 88.109143 268.170857 
L 112.188 268.170857 
L 112.188 244.092 
L 88.109143 244.092 
z
" clip-path="url(#p420dc2eec4)" style="fill: #ffffff; stroke: #dddddd; stroke-width: 0.8; stroke-linejoin: miter"/>
   </g>
   <g id="patch_11">
    <path d="M 88.109143 241.416571 
L 112.188 241.416571 
L 112.188 217.337714 
L 88.109143 217.337714 
z
" clip-path="url(#p420dc2eec4)" style="fill: #ffffff; stroke: #dddddd; stroke-width: 0.8; stroke-linejoin: miter"/>
   </g>
   <g id="patch_12">
    <path d="M 88.109143 214.662286 
L 112.188 214.662286 
L 112.188 190.583429 
L 88.109143 190.583429 
z
" clip-path="url(#p420dc2eec4)" style="fill: #ffffff; stroke: #dddddd; stroke-width: 0.8; stroke-linejoin: miter"/>
   </g>
   <g id="patch_13">
    <path d="M 88.109143 187.908 
L 112.188 187.908 
L 112.188 163.829143 
L 88.109143 163.829143 
z
" clip-path="url(#p420dc2eec4)" style="fill: #ffffff; stroke: #dddddd; stroke-width: 0.8; stroke-linejoin: miter"/>
   </g>
   <g id="patch_14">
    <path d="M 88.109143 161.153714 
L 112.188 161.153714 
L 112.188 137.074857 
L 88.109143 137.074857 
z
" clip-path="url(#p420dc2eec4)" style="fill: #ffffff; stroke: #dddddd; stroke-width: 0.8; stroke-linejoin: miter"/>
   </g>
   <g id="patch_15">
    <path d="M 114.863429 294.925143 
L 138.942286 294.925143 
L 138.942286 270.846286 
L 114.863429 270.846286 
z
" clip-path="url(#p420dc2eec4)" style="fill: #ffffff; stroke: #dddddd; stroke-width: 0.8; stroke-linejoin: miter"/>
   </g>
   <g id="patch_16">
    <path d="M 114.863429 268.170857 
L 138.942286 268.170857 
L 138.942286 244.092 
L 114.863429 244.092 
z
" clip-path="url(#p420dc2eec4)" style="fill: #ffffff; stroke: #dddddd; stroke-width: 0.8; stroke-linejoin: miter"/>
   </g>
   <g id="patch_17">
    <path d="M 114.863429 241.416571 
L 138.942286 241.416571 
L 138.942286 217.337714 
L 114.863429 217.337714 
z
" clip-path="url(#p420dc2eec4)" style="fill: #ffffff; stroke: #dddddd; stroke-width: 0.8; stroke-linejoin: miter"/>
   </g>
   <g id="patch_18">
    <path d="M 114.863429 214.662286 
L 138.942286 214.662286 
L 138.942286 190.583429 
L 114.863429 190.583429 
z
" clip-path="url(#p420dc2eec4)" style="fill: #ffffff; stroke: #dddddd; stroke-width: 0.8; stroke-linejoin: miter"/>
   </g>
   <g id="patch_19">
    <path d="M 114.863429 187.908 
L 138.942286 187.908 
L 138.942286 163.829143 
L 114.863429 163.829143 
z
" clip-path="url(#p420dc2eec4)" style="fill: #ffffff; stroke: #dddddd; stroke-width: 0.8; stroke-linejoin: miter"/>
   </g>
   <g id="patch_20">
    <path d="M 114.863429 161.153714 
L 138.942286 161.153714 
L 138.942286 137.074857 
L 114.863429 137.074857 
z
" clip-path="url(#p420dc2eec4)" style="fill: #ffffff; stroke: #dddddd; stroke-width: 0.8; stroke-linejoin: miter"/>
   </g>
   <g id="patch_21">
    <path d="M 141.617714 294.925143 
L 165.696571 294.925143 
L 165.696571 270.846286 
L 141.617714 270.846286 
z
" clip-path="url(#p420dc2eec4)" style="fill: #ffffff; stroke: #dddddd; stroke-width: 0.8; stroke-linejoin: miter"/>
   </g>
   <g id="patch_22">
    <path d="M 141.617714 268.170857 
L 165.696571 268.170857 
L 165.696571 244.092 
L 141.617714 244.092 
z
" clip-path="url(#p420dc2eec4)" style="fill: #ffffff; stroke: #dddddd; stroke-width: 0.8; stroke-linejoin: miter"/>
   </g>
   <g id="patch_23">
    <path d="M 141.617714 241.416571 
L 165.696571 241.416571 
L 165.696571 217.337714 
L 141.617714 217.337714 
z
" clip-path="url(#p420dc2eec4)" style="fill: #ffffff; stroke: #dddddd; stroke-width: 0.8; stroke-linejoin: miter"/>
   </g>
   <g id="patch_24">
    <path d="M 141.617714 214.662286 
L 165.696571 214.662286 
L 165.696571 190.583429 
L 141.617714 190.583429 
z
" clip-path="url(#p420dc2eec4)" style="fill: #ffffff; stroke: #dddddd; stroke-width: 0.8; stroke-linejoin: miter"/>
   </g>
   <g id="patch_25">
    <path d="M 141.617714 187.908 
L 165.696571 187.908 
L 165.696571 163.829143 
L 141.617714 163.829143 
z
" clip-path="url(#p420dc2eec4)" style="fill: #ffffff; stroke: #dddddd; stroke-width: 0.8; stroke-linejoin: miter"/>
   </g>
   <g id="patch_26">
    <path d="M 141.617714 161.153714 
L 165.696571 161.153714 
L 165.696571 137.074857 
L 141.617714 137.074857 
z
" clip-path="url(#p420dc2eec4)" style="fill: #ffffff; stroke: #dddddd; stroke-width: 0.8; stroke-linejoin: miter"/>
   </g>
   <g id="patch_27">
    <path d="M 168.372 294.925143 
L 192.450857 294.925143 
L 192.450857 270.846286 
L 168.372 270.846286 
z
" clip-path="url(#p420dc2eec4)" style="fill: #ffffff; stroke: #dddddd; stroke-width: 0.8; stroke-linejoin: miter"/>
   </g>
   <g id="patch_28">
    <path d="M 168.372 268.170857 
L 192.450857 268.170857 
L 192.450857 244.092 
L 168.372 244.092 
z
" clip-path="url(#p420dc2eec4)" style="fill: #ffffff; stroke: #dddddd; stroke-width: 0.8; stroke-linejoin: miter"/>
   </g>
   <g id="patch_29">
    <path d="M 168.372 241.416571 
L 192.450857 241.416571 
L 192.450857 217.337714 
L 168.372 217.337714 
z
" clip-path="url(#p420dc2eec4)" style="fill: #ffffff; stroke: #dddddd; stroke-width: 0.8; stroke-linejoin: miter"/>
   </g>
   <g id="patch_30">
    <path d="M 168.372 214.662286 
L 192.450857 214.662286 
L 192.450857 190.583429 
L 168.372 190.583429 
z
" clip-path="url(#p420dc2eec4)" style="fill: #ffffff; stroke: #dddddd; stroke-width: 0.8; stroke-linejoin: miter"/>
   </g>
   <g id="patch_31">
    <path d="M 168.372 187.908 
L 192.450857 187.908 
L 192.450857 163.829143 
L 168.372 163.829143 
z
" clip-path="url(#p420dc2eec4)" style="fill: #ffffff; stroke: #dddddd; stroke-width: 0.8; stroke-linejoin: miter"/>
   </g>
   <g id="patch_32">
    <path d="M 168.372 161.153714 
L 192.450857 161.153714 
L 192.450857 137.074857 
L 168.372 137.074857 
z
" clip-path="url(#p420dc2eec4)" style="fill: #ffffff; stroke: #dddddd; stroke-width: 0.8; stroke-linejoin: miter"/>
   </g>
   <g id="patch_33">
    <path d="M 195.126286 294.925143 
L 219.205143 294.925143 
L 219.205143 270.846286 
L 195.126286 270.846286 
z
" clip-path="url(#p420dc2eec4)" style="fill: #ffffff; stroke: #dddddd; stroke-width: 0.8; stroke-linejoin: miter"/>
   </g>
   <g id="patch_34">
    <path d="M 195.126286 268.170857 
L 219.205143 268.170857 
L 219.205143 244.092 
L 195.126286 244.092 
z
" clip-path="url(#p420dc2eec4)" style="fill: #ffffff; stroke: #dddddd; stroke-width: 0.8; stroke-linejoin: miter"/>
   </g>
   <g id="patch_35">
    <path d="M 195.126286 241.416571 
L 219.205143 241.416571 
L 219.205143 217.337714 
L 195.126286 217.337714 
z
" clip-path="url(#p420dc2eec4)" style="fill: #ffffff; stroke: #dddddd; stroke-width: 0.8; stroke-linejoin: miter"/>
   </g>
   <g id="patch_36">
    <path d="M 195.126286 214.662286 
L 219.205143 214.662286 
L 219.205143 190.583429 
L 195.126286 190.583429 
z
" clip-path="url(#p420dc2eec4)" style="fill: #ffffff; stroke: #dddddd; stroke-width: 0.8; stroke-linejoin: miter"/>
   </g>
   <g id="patch_37">
    <path d="M 195.126286 187.908 
L 219.205143 187.908 
L 219.205143 163.829143 
L 195.126286 163.829143 
z
" clip-path="url(#p420dc2eec4)" style="fill: #ffffff; stroke: #dddddd; stroke-width: 0.8; stroke-linejoin: miter"/>
   </g>
   <g id="patch_38">
    <path d="M 195.126286 161.153714 
L 219.205143 161.153714 
L 219.205143 137.074857 
L 195.126286 137.074857 
z
" clip-path="url(#p420dc2eec4)" style="fill: #ffffff; stroke: #dddddd; stroke-width: 0.8; stroke-linejoin: miter"/>
   </g>
   <g id="patch_39">
    <path d="M 221.880571 294.925143 
L 245.959429 294.925143 
L 245.959429 270.846286 
L 221.880571 270.846286 
z
" clip-path="url(#p420dc2eec4)" style="fill: #ffffff; stroke: #dddddd; stroke-width: 0.8; stroke-linejoin: miter"/>
   </g>
   <g id="patch_40">
    <path d="M 221.880571 268.170857 
L 245.959429 268.170857 
L 245.959429 244.092 
L 221.880571 244.092 
z
" clip-path="url(#p420dc2eec4)" style="fill: #ffffff; stroke: #dddddd; stroke-width: 0.8; stroke-linejoin: miter"/>
   </g>
   <g id="patch_41">
    <path d="M 221.880571 241.416571 
L 245.959429 241.416571 
L 245.959429 217.337714 
L 221.880571 217.337714 
z
" clip-path="url(#p420dc2eec4)" style="fill: #ffffff; stroke: #dddddd; stroke-width: 0.8; stroke-linejoin: miter"/>
   </g>
   <g id="patch_42">
    <path d="M 221.880571 214.662286 
L 245.959429 214.662286 
L 245.959429 190.583429 
L 221.880571 190.583429 
z
" clip-path="url(#p420dc2eec4)" style="fill: #ffffff; stroke: #dddddd; stroke-width: 0.8; stroke-linejoin: miter"/>
   </g>
   <g id="patch_43">
    <path d="M 221.880571 187.908 
L 245.959429 187.908 
L 245.959429 163.829143 
L 221.880571 163.829143 
z
" clip-path="url(#p420dc2eec4)" style="fill: #ffffff; stroke: #dddddd; stroke-width: 0.8; stroke-linejoin: miter"/>
   </g>
   <g id="patch_44">
    <path d="M 221.880571 161.153714 
L 245.959429 161.153714 
L 245.959429 137.074857 
L 221.880571 137.074857 
z
" clip-path="url(#p420dc2eec4)" style="fill: #ffffff; stroke: #dddddd; stroke-width: 0.8; stroke-linejoin: miter"/>
   </g>
   <g id="patch_45">
    <path d="M 248.634857 294.925143 
L 272.713714 294.925143 
L 272.713714 270.846286 
L 248.634857 270.846286 
z
" clip-path="url(#p420dc2eec4)" style="fill: #ffffff; stroke: #dddddd; stroke-width: 0.8; stroke-linejoin: miter"/>
   </g>
   <g id="patch_46">
    <path d="M 248.634857 268.170857 
L 272.713714 268.170857 
L 272.713714 244.092 
L 248.634857 244.092 
z
" clip-path="url(#p420dc2eec4)" style="fill: #ffffff; stroke: #dddddd; stroke-width: 0.8; stroke-linejoin: miter"/>
   </g>
   <g id="patch_47">
    <path d="M 248.634857 241.416571 
L 272.713714 241.416571 
L 272.713714 217.337714 
L 248.634857 217.337714 
z
" clip-path="url(#p420dc2eec4)" style="fill: #ffffff; stroke: #dddddd; stroke-width: 0.8; stroke-linejoin: miter"/>
   </g>
   <g id="patch_48">
    <path d="M 248.634857 214.662286 
L 272.713714 214.662286 
L 272.713714 190.583429 
L 248.634857 190.583429 
z
" clip-path="url(#p420dc2eec4)" style="fill: #ffffff; stroke: #dddddd; stroke-width: 0.8; stroke-linejoin: miter"/>
   </g>
   <g id="patch_49">
    <path d="M 248.634857 187.908 
L 272.713714 187.908 
L 272.713714 163.829143 
L 248.634857 163.829143 
z
" clip-path="url(#p420dc2eec4)" style="fill: #ffffff; stroke: #dddddd; stroke-width: 0.8; stroke-linejoin: miter"/>
   </g>
   <g id="patch_50">
    <path d="M 248.634857 161.153714 
L 272.713714 161.153714 
L 272.713714 137.074857 
L 248.634857 137.074857 
z
" clip-path="url(#p420dc2eec4)" style="fill: #ffffff; stroke: #dddddd; stroke-width: 0.8; stroke-linejoin: miter"/>
   </g>
   <g id="patch_51">
    <path d="M 275.389143 294.925143 
L 299.468 294.925143 
L 299.468 270.846286 
L 275.389143 270.846286 
z
" clip-path="url(#p420dc2eec4)" style="fill: #ffffff; stroke: #dddddd; stroke-width: 0.8; stroke-linejoin: miter"/>
   </g>
   <g id="patch_52">
    <path d="M 275.389143 268.170857 
L 299.468 268.170857 
L 299.468 244.092 
L 275.389143 244.092 
z
" clip-path="url(#p420dc2eec4)" style="fill: #ffffff; stroke: #dddddd; stroke-width: 0.8; stroke-linejoin: miter"/>
   </g>
   <g id="patch_53">
    <path d="M 275.389143 241.416571 
L 299.468 241.416571 
L 299.468 217.337714 
L 275.389143 217.337714 
z
" clip-path="url(#p420dc2eec4)" style="fill: #ffffff; stroke: #dddddd; stroke-width: 0.8; stroke-linejoin: miter"/>
   </g>
   <g id="patch_54">
    <path d="M 275.389143 214.662286 
L 299.468 214.662286 
L 299.468 190.583429 
L 275.389143 190.583429 
z
" clip-path="url(#p420dc2eec4)" style="fill: #ffffff; stroke: #dddddd; stroke-width: 0.8; stroke-linejoin: miter"/>
   </g>
   <g id="patch_55">
    <path d="M 275.389143 187.908 
L 299.468 187.908 
L 299.468 163.829143 
L 275.389143 163.829143 
z
" clip-path="url(#p420dc2eec4)" style="fill: #ffffff; stroke: #dddddd; stroke-width: 0.8; stroke-linejoin: miter"/>
   </g>
   <g id="patch_56">
    <path d="M 275.389143 161.153714 
L 299.468 161.153714 
L 299.468 137.074857 
L 275.389143 137.074857 
z
" clip-path="url(#p420dc2eec4)" style="fill: #ffffff; stroke: #dddddd; stroke-width: 0.8; stroke-linejoin: miter"/>
   </g>
   <g id="patch_57">
    <path d="M 302.143429 294.925143 
L 326.222286 294.925143 
L 326.222286 270.846286 
L 302.143429 270.846286 
z
" clip-path="url(#p420dc2eec4)" style="fill: #ffffff; stroke: #dddddd; stroke-width: 0.8; stroke-linejoin: miter"/>
   </g>
   <g id="patch_58">
    <path d="M 302.143429 268.170857 
L 326.222286 268.170857 
L 326.222286 244.092 
L 302.143429 244.092 
z
" clip-path="url(#p420dc2eec4)" style="fill: #ffffff; stroke: #dddddd; stroke-width: 0.8; stroke-linejoin: miter"/>
   </g>
   <g id="patch_59">
    <path d="M 302.143429 241.416571 
L 326.222286 241.416571 
L 326.222286 217.337714 
L 302.143429 217.337714 
z
" clip-path="url(#p420dc2eec4)" style="fill: #ffffff; stroke: #dddddd; stroke-width: 0.8; stroke-linejoin: miter"/>
   </g>
   <g id="patch_60">
    <path d="M 302.143429 214.662286 
L 326.222286 214.662286 
L 326.222286 190.583429 
L 302.143429 190.583429 
z
" clip-path="url(#p420dc2eec4)" style="fill: #ffffff; stroke: #dddddd; stroke-width: 0.8; stroke-linejoin: miter"/>
   </g>
   <g id="patch_61">
    <path d="M 302.143429 187.908 
L 326.222286 187.908 
L 326.222286 163.829143 
L 302.143429 163.829143 
z
" clip-path="url(#p420dc2eec4)" style="fill: #ffffff; stroke: #dddddd; stroke-width: 0.8; stroke-linejoin: miter"/>
   </g>
   <g id="patch_62">
    <path d="M 302.143429 161.153714 
L 326.222286 161.153714 
L 326.222286 137.074857 
L 302.143429 137.074857 
z
" clip-path="url(#p420dc2eec4)" style="fill: #ffffff; stroke: #dddddd; stroke-width: 0.8; stroke-linejoin: miter"/>
   </g>
   <g id="patch_63">
    <path d="M 328.897714 294.925143 
L 352.976571 294.925143 
L 352.976571 270.846286 
L 328.897714 270.846286 
z
" clip-path="url(#p420dc2eec4)" style="fill: #ffffff; stroke: #dddddd; stroke-width: 0.8; stroke-linejoin: miter"/>
   </g>
   <g id="patch_64">
    <path d="M 328.897714 268.170857 
L 352.976571 268.170857 
L 352.976571 244.092 
L 328.897714 244.092 
z
" clip-path="url(#p420dc2eec4)" style="fill: #ffffff; stroke: #dddddd; stroke-width: 0.8; stroke-linejoin: miter"/>
   </g>
   <g id="patch_65">
    <path d="M 328.897714 241.416571 
L 352.976571 241.416571 
L 352.976571 217.337714 
L 328.897714 217.337714 
z
" clip-path="url(#p420dc2eec4)" style="fill: #ffffff; stroke: #dddddd; stroke-width: 0.8; stroke-linejoin: miter"/>
   </g>
   <g id="patch_66">
    <path d="M 328.897714 214.662286 
L 352.976571 214.662286 
L 352.976571 190.583429 
L 328.897714 190.583429 
z
" clip-path="url(#p420dc2eec4)" style="fill: #ffffff; stroke: #dddddd; stroke-width: 0.8; stroke-linejoin: miter"/>
   </g>
   <g id="patch_67">
    <path d="M 328.897714 187.908 
L 352.976571 187.908 
L 352.976571 163.829143 
L 328.897714 163.829143 
z
" clip-path="url(#p420dc2eec4)" style="fill: #ffffff; stroke: #dddddd; stroke-width: 0.8; stroke-linejoin: miter"/>
   </g>
   <g id="patch_68">
    <path d="M 328.897714 161.153714 
L 352.976571 161.153714 
L 352.976571 137.074857 
L 328.897714 137.074857 
z
" clip-path="url(#p420dc2eec4)" style="fill: #ffffff; stroke: #dddddd; stroke-width: 0.8; stroke-linejoin: miter"/>
   </g>
   <g id="patch_69">
    <path d="M 355.652 294.925143 
L 379.730857 294.925143 
L 379.730857 270.846286 
L 355.652 270.846286 
z
" clip-path="url(#p420dc2eec4)" style="fill: #ffffff; stroke: #dddddd; stroke-width: 0.8; stroke-linejoin: miter"/>
   </g>
   <g id="patch_70">
    <path d="M 355.652 268.170857 
L 379.730857 268.170857 
L 379.730857 244.092 
L 355.652 244.092 
z
" clip-path="url(#p420dc2eec4)" style="fill: #ffffff; stroke: #dddddd; stroke-width: 0.8; stroke-linejoin: miter"/>
   </g>
   <g id="patch_71">
    <path d="M 355.652 241.416571 
L 379.730857 241.416571 
L 379.730857 217.337714 
L 355.652 217.337714 
z
" clip-path="url(#p420dc2eec4)" style="fill: #ffffff; stroke: #dddddd; stroke-width: 0.8; stroke-linejoin: miter"/>
   </g>
   <g id="patch_72">
    <path d="M 355.652 214.662286 
L 379.730857 214.662286 
L 379.730857 190.583429 
L 355.652 190.583429 
z
" clip-path="url(#p420dc2eec4)" style="fill: #ffffff; stroke: #dddddd; stroke-width: 0.8; stroke-linejoin: miter"/>
   </g>
   <g id="patch_73">
    <path d="M 355.652 187.908 
L 379.730857 187.908 
L 379.730857 163.829143 
L 355.652 163.829143 
z
" clip-path="url(#p420dc2eec4)" style="fill: #ffffff; stroke: #dddddd; stroke-width: 0.8; stroke-linejoin: miter"/>
   </g>
   <g id="patch_74">
    <path d="M 355.652 161.153714 
L 379.730857 161.153714 
L 379.730857 137.074857 
L 355.652 137.074857 
z
" clip-path="url(#p420dc2eec4)" style="fill: #ffffff; stroke: #dddddd; stroke-width: 0.8; stroke-linejoin: miter"/>
   </g>
   <g id="patch_75">
    <path d="M 382.406286 294.925143 
L 406.485143 294.925143 
L 406.485143 270.846286 
L 382.406286 270.846286 
z
" clip-path="url(#p420dc2eec4)" style="fill: #ffffff; stroke: #dddddd; stroke-width: 0.8; stroke-linejoin: miter"/>
   </g>
   <g id="patch_76">
    <path d="M 382.406286 268.170857 
L 406.485143 268.170857 
L 406.485143 244.092 
L 382.406286 244.092 
z
" clip-path="url(#p420dc2eec4)" style="fill: #ffffff; stroke: #dddddd; stroke-width: 0.8; stroke-linejoin: miter"/>
   </g>
   <g id="patch_77">
    <path d="M 382.406286 241.416571 
L 406.485143 241.416571 
L 406.485143 217.337714 
L 382.406286 217.337714 
z
" clip-path="url(#p420dc2eec4)" style="fill: #ffffff; stroke: #dddddd; stroke-width: 0.8; stroke-linejoin: miter"/>
   </g>
   <g id="patch_78">
    <path d="M 382.406286 214.662286 
L 406.485143 214.662286 
L 406.485143 190.583429 
L 382.406286 190.583429 
z
" clip-path="url(#p420dc2eec4)" style="fill: #ffffff; stroke: #dddddd; stroke-width: 0.8; stroke-linejoin: miter"/>
   </g>
   <g id="patch_79">
    <path d="M 382.406286 187.908 
L 406.485143 187.908 
L 406.485143 163.829143 
L 382.406286 163.829143 
z
" clip-path="url(#p420dc2eec4)" style="fill: #ffffff; stroke: #dddddd; stroke-width: 0.8; stroke-linejoin: miter"/>
   </g>
   <g id="patch_80">
    <path d="M 382.406286 161.153714 
L 406.485143 161.153714 
L 406.485143 137.074857 
L 382.406286 137.074857 
z
" clip-path="url(#p420dc2eec4)" style="fill: #ffffff; stroke: #dddddd; stroke-width: 0.8; stroke-linejoin: miter"/>
   </g>
   <g id="patch_81">
    <path d="M 382.406286 294.925143 
L 406.485143 294.925143 
L 406.485143 270.846286 
L 382.406286 270.846286 
z
" clip-path="url(#p420dc2eec4)" style="fill: #4c78a8; stroke: #000000; stroke-linejoin: miter"/>
   </g>
   <g id="patch_82">
    <path d="M 61.354857 294.925143 
L 85.433714 294.925143 
L 85.433714 270.846286 
L 61.354857 270.846286 
z
" clip-path="url(#p420dc2eec4)" style="fill: #4c78a8; stroke: #000000; stroke-linejoin: miter"/>
   </g>
   <g id="matplotlib.axis_1">
    <g id="xtick_1">
     <g id="line2d_1">
      <defs>
       <path id="m1a421447b2" d="M 0 0 
L 0 3.5 
" style="stroke: #000000; stroke-width: 0.8"/>
      </defs>
      <g>
       <use xlink:href="#m1a421447b2" x="73.394286" y="309.64" style="stroke: #000000; stroke-width: 0.8"/>
      </g>
     </g>
     <g id="text_1">
      <!-- 0 -->
      <g transform="translate(70.213036 324.238438) scale(0.1 -0.1)">
       <defs>
        <path id="DejaVuSans-30" d="M 2034 4250 
Q 1547 4250 1301 3770 
Q 1056 3291 1056 2328 
Q 1056 1369 1301 889 
Q 1547 409 2034 409 
Q 2525 409 2770 889 
Q 3016 1369 3016 2328 
Q 3016 3291 2770 3770 
Q 2525 4250 2034 4250 
z
M 2034 4750 
Q 2819 4750 3233 4129 
Q 3647 3509 3647 2328 
Q 3647 1150 3233 529 
Q 2819 -91 2034 -91 
Q 1250 -91 836 529 
Q 422 1150 422 2328 
Q 422 3509 836 4129 
Q 1250 4750 2034 4750 
z
" transform="scale(0.015625)"/>
       </defs>
       <use xlink:href="#DejaVuSans-30"/>
      </g>
     </g>
    </g>
    <g id="xtick_2">
     <g id="line2d_2">
      <g>
       <use xlink:href="#m1a421447b2" x="126.902857" y="309.64" style="stroke: #000000; stroke-width: 0.8"/>
      </g>
     </g>
     <g id="text_2">
      <!-- 2 -->
      <g transform="translate(123.721607 324.238438) scale(0.1 -0.1)">
       <defs>
        <path id="DejaVuSans-32" d="M 1228 531 
L 3431 531 
L 3431 0 
L 469 0 
L 469 531 
Q 828 903 1448 1529 
Q 2069 2156 2228 2338 
Q 2531 2678 2651 2914 
Q 2772 3150 2772 3378 
Q 2772 3750 2511 3984 
Q 2250 4219 1831 4219 
Q 1534 4219 1204 4116 
Q 875 4013 500 3803 
L 500 4441 
Q 881 4594 1212 4672 
Q 1544 4750 1819 4750 
Q 2544 4750 2975 4387 
Q 3406 4025 3406 3419 
Q 3406 3131 3298 2873 
Q 3191 2616 2906 2266 
Q 2828 2175 2409 1742 
Q 1991 1309 1228 531 
z
" transform="scale(0.015625)"/>
       </defs>
       <use xlink:href="#DejaVuSans-32"/>
      </g>
     </g>
    </g>
    <g id="xtick_3">
     <g id="line2d_3">
      <g>
       <use xlink:href="#m1a421447b2" x="180.411429" y="309.64" style="stroke: #000000; stroke-width: 0.8"/>
      </g>
     </g>
     <g id="text_3">
      <!-- 4 -->
      <g transform="translate(177.230179 324.238438) scale(0.1 -0.1)">
       <defs>
        <path id="DejaVuSans-34" d="M 2419 4116 
L 825 1625 
L 2419 1625 
L 2419 4116 
z
M 2253 4666 
L 3047 4666 
L 3047 1625 
L 3713 1625 
L 3713 1100 
L 3047 1100 
L 3047 0 
L 2419 0 
L 2419 1100 
L 313 1100 
L 313 1709 
L 2253 4666 
z
" transform="scale(0.015625)"/>
       </defs>
       <use xlink:href="#DejaVuSans-34"/>
      </g>
     </g>
    </g>
    <g id="xtick_4">
     <g id="line2d_4">
      <g>
       <use xlink:href="#m1a421447b2" x="233.92" y="309.64" style="stroke: #000000; stroke-width: 0.8"/>
      </g>
     </g>
     <g id="text_4">
      <!-- 6 -->
      <g transform="translate(230.73875 324.238438) scale(0.1 -0.1)">
       <defs>
        <path id="DejaVuSans-36" d="M 2113 2584 
Q 1688 2584 1439 2293 
Q 1191 2003 1191 1497 
Q 1191 994 1439 701 
Q 1688 409 2113 409 
Q 2538 409 2786 701 
Q 3034 994 3034 1497 
Q 3034 2003 2786 2293 
Q 2538 2584 2113 2584 
z
M 3366 4563 
L 3366 3988 
Q 3128 4100 2886 4159 
Q 2644 4219 2406 4219 
Q 1781 4219 1451 3797 
Q 1122 3375 1075 2522 
Q 1259 2794 1537 2939 
Q 1816 3084 2150 3084 
Q 2853 3084 3261 2657 
Q 3669 2231 3669 1497 
Q 3669 778 3244 343 
Q 2819 -91 2113 -91 
Q 1303 -91 875 529 
Q 447 1150 447 2328 
Q 447 3434 972 4092 
Q 1497 4750 2381 4750 
Q 2619 4750 2861 4703 
Q 3103 4656 3366 4563 
z
" transform="scale(0.015625)"/>
       </defs>
       <use xlink:href="#DejaVuSans-36"/>
      </g>
     </g>
    </g>
    <g id="xtick_5">
     <g id="line2d_5">
      <g>
       <use xlink:href="#m1a421447b2" x="287.428571" y="309.64" style="stroke: #000000; stroke-width: 0.8"/>
      </g>
     </g>
     <g id="text_5">
      <!-- 8 -->
      <g transform="translate(284.247321 324.238438) scale(0.1 -0.1)">
       <defs>
        <path id="DejaVuSans-38" d="M 2034 2216 
Q 1584 2216 1326 1975 
Q 1069 1734 1069 1313 
Q 1069 891 1326 650 
Q 1584 409 2034 409 
Q 2484 409 2743 651 
Q 3003 894 3003 1313 
Q 3003 1734 2745 1975 
Q 2488 2216 2034 2216 
z
M 1403 2484 
Q 997 2584 770 2862 
Q 544 3141 544 3541 
Q 544 4100 942 4425 
Q 1341 4750 2034 4750 
Q 2731 4750 3128 4425 
Q 3525 4100 3525 3541 
Q 3525 3141 3298 2862 
Q 3072 2584 2669 2484 
Q 3125 2378 3379 2068 
Q 3634 1759 3634 1313 
Q 3634 634 3220 271 
Q 2806 -91 2034 -91 
Q 1263 -91 848 271 
Q 434 634 434 1313 
Q 434 1759 690 2068 
Q 947 2378 1403 2484 
z
M 1172 3481 
Q 1172 3119 1398 2916 
Q 1625 2713 2034 2713 
Q 2441 2713 2670 2916 
Q 2900 3119 2900 3481 
Q 2900 3844 2670 4047 
Q 2441 4250 2034 4250 
Q 1625 4250 1398 4047 
Q 1172 3844 1172 3481 
z
" transform="scale(0.015625)"/>
       </defs>
       <use xlink:href="#DejaVuSans-38"/>
      </g>
     </g>
    </g>
    <g id="xtick_6">
     <g id="line2d_6">
      <g>
       <use xlink:href="#m1a421447b2" x="340.937143" y="309.64" style="stroke: #000000; stroke-width: 0.8"/>
      </g>
     </g>
     <g id="text_6">
      <!-- 10 -->
      <g transform="translate(334.574643 324.238438) scale(0.1 -0.1)">
       <defs>
        <path id="DejaVuSans-31" d="M 794 531 
L 1825 531 
L 1825 4091 
L 703 3866 
L 703 4441 
L 1819 4666 
L 2450 4666 
L 2450 531 
L 3481 531 
L 3481 0 
L 794 0 
L 794 531 
z
" transform="scale(0.015625)"/>
       </defs>
       <use xlink:href="#DejaVuSans-31"/>
       <use xlink:href="#DejaVuSans-30" transform="translate(63.623047 0)"/>
      </g>
     </g>
    </g>
    <g id="xtick_7">
     <g id="line2d_7">
      <g>
       <use xlink:href="#m1a421447b2" x="394.445714" y="309.64" style="stroke: #000000; stroke-width: 0.8"/>
      </g>
     </g>
     <g id="text_7">
      <!-- 12 -->
      <g transform="translate(388.083214 324.238438) scale(0.1 -0.1)">
       <use xlink:href="#DejaVuSans-31"/>
       <use xlink:href="#DejaVuSans-32" transform="translate(63.623047 0)"/>
      </g>
     </g>
    </g>
    <g id="text_8">
     <!-- x exponent -->
     <g transform="translate(205.815313 337.916562) scale(0.1 -0.1)">
      <defs>
       <path id="DejaVuSans-78" d="M 3513 3500 
L 2247 1797 
L 3578 0 
L 2900 0 
L 1881 1375 
L 863 0 
L 184 0 
L 1544 1831 
L 300 3500 
L 978 3500 
L 1906 2253 
L 2834 3500 
L 3513 3500 
z
" transform="scale(0.015625)"/>
       <path id="DejaVuSans-20" transform="scale(0.015625)"/>
       <path id="DejaVuSans-65" d="M 3597 1894 
L 3597 1613 
L 953 1613 
Q 991 1019 1311 708 
Q 1631 397 2203 397 
Q 2534 397 2845 478 
Q 3156 559 3463 722 
L 3463 178 
Q 3153 47 2828 -22 
Q 2503 -91 2169 -91 
Q 1331 -91 842 396 
Q 353 884 353 1716 
Q 353 2575 817 3079 
Q 1281 3584 2069 3584 
Q 2775 3584 3186 3129 
Q 3597 2675 3597 1894 
z
M 3022 2063 
Q 3016 2534 2758 2815 
Q 2500 3097 2075 3097 
Q 1594 3097 1305 2825 
Q 1016 2553 972 2059 
L 3022 2063 
z
" transform="scale(0.015625)"/>
       <path id="DejaVuSans-70" d="M 1159 525 
L 1159 -1331 
L 581 -1331 
L 581 3500 
L 1159 3500 
L 1159 2969 
Q 1341 3281 1617 3432 
Q 1894 3584 2278 3584 
Q 2916 3584 3314 3078 
Q 3713 2572 3713 1747 
Q 3713 922 3314 415 
Q 2916 -91 2278 -91 
Q 1894 -91 1617 61 
Q 1341 213 1159 525 
z
M 3116 1747 
Q 3116 2381 2855 2742 
Q 2594 3103 2138 3103 
Q 1681 3103 1420 2742 
Q 1159 2381 1159 1747 
Q 1159 1113 1420 752 
Q 1681 391 2138 391 
Q 2594 391 2855 752 
Q 3116 1113 3116 1747 
z
" transform="scale(0.015625)"/>
       <path id="DejaVuSans-6f" d="M 1959 3097 
Q 1497 3097 1228 2736 
Q 959 2375 959 1747 
Q 959 1119 1226 758 
Q 1494 397 1959 397 
Q 2419 397 2687 759 
Q 2956 1122 2956 1747 
Q 2956 2369 2687 2733 
Q 2419 3097 1959 3097 
z
M 1959 3584 
Q 2709 3584 3137 3096 
Q 3566 2609 3566 1747 
Q 3566 888 3137 398 
Q 2709 -91 1959 -91 
Q 1206 -91 779 398 
Q 353 888 353 1747 
Q 353 2609 779 3096 
Q 1206 3584 1959 3584 
z
" transform="scale(0.015625)"/>
       <path id="DejaVuSans-6e" d="M 3513 2113 
L 3513 0 
L 2938 0 
L 2938 2094 
Q 2938 2591 2744 2837 
Q 2550 3084 2163 3084 
Q 1697 3084 1428 2787 
Q 1159 2491 1159 1978 
L 1159 0 
L 581 0 
L 581 3500 
L 1159 3500 
L 1159 2956 
Q 1366 3272 1645 3428 
Q 1925 3584 2291 3584 
Q 2894 3584 3203 3211 
Q 3513 2838 3513 2113 
z
" transform="scale(0.015625)"/>
       <path id="DejaVuSans-74" d="M 1172 4494 
L 1172 3500 
L 2356 3500 
L 2356 3053 
L 1172 3053 
L 1172 1153 
Q 1172 725 1289 603 
Q 1406 481 1766 481 
L 2356 481 
L 2356 0 
L 1766 0 
Q 1100 0 847 248 
Q 594 497 594 1153 
L 594 3053 
L 172 3053 
L 172 3500 
L 594 3500 
L 594 4494 
L 1172 4494 
z
" transform="scale(0.015625)"/>
      </defs>
      <use xlink:href="#DejaVuSans-78"/>
      <use xlink:href="#DejaVuSans-20" transform="translate(59.179688 0)"/>
      <use xlink:href="#DejaVuSans-65" transform="translate(90.966797 0)"/>
      <use xlink:href="#DejaVuSans-78" transform="translate(150.740234 0)"/>
      <use xlink:href="#DejaVuSans-70" transform="translate(209.919922 0)"/>
      <use xlink:href="#DejaVuSans-6f" transform="translate(273.396484 0)"/>
      <use xlink:href="#DejaVuSans-6e" transform="translate(334.578125 0)"/>
      <use xlink:href="#DejaVuSans-65" transform="translate(397.957031 0)"/>
      <use xlink:href="#DejaVuSans-6e" transform="translate(459.480469 0)"/>
      <use xlink:href="#DejaVuSans-74" transform="translate(522.859375 0)"/>
     </g>
    </g>
   </g>
   <g id="matplotlib.axis_2">
    <g id="ytick_1">
     <g id="line2d_8">
      <defs>
       <path id="me63f730ed0" d="M 0 0 
L -3.5 0 
" style="stroke: #000000; stroke-width: 0.8"/>
      </defs>
      <g>
       <use xlink:href="#me63f730ed0" x="46.64" y="309.64" style="stroke: #000000; stroke-width: 0.8"/>
      </g>
     </g>
     <g id="text_9">
      <!-- −6 -->
      <g transform="translate(24.897813 313.439219) scale(0.1 -0.1)">
       <defs>
        <path id="DejaVuSans-2212" d="M 678 2272 
L 4684 2272 
L 4684 1741 
L 678 1741 
L 678 2272 
z
" transform="scale(0.015625)"/>
       </defs>
       <use xlink:href="#DejaVuSans-2212"/>
       <use xlink:href="#DejaVuSans-36" transform="translate(83.789062 0)"/>
      </g>
     </g>
    </g>
    <g id="ytick_2">
     <g id="line2d_9">
      <g>
       <use xlink:href="#me63f730ed0" x="46.64" y="282.885714" style="stroke: #000000; stroke-width: 0.8"/>
      </g>
     </g>
     <g id="text_10">
      <!-- −5 -->
      <g transform="translate(24.897813 286.684933) scale(0.1 -0.1)">
       <defs>
        <path id="DejaVuSans-35" d="M 691 4666 
L 3169 4666 
L 3169 4134 
L 1269 4134 
L 1269 2991 
Q 1406 3038 1543 3061 
Q 1681 3084 1819 3084 
Q 2600 3084 3056 2656 
Q 3513 2228 3513 1497 
Q 3513 744 3044 326 
Q 2575 -91 1722 -91 
Q 1428 -91 1123 -41 
Q 819 9 494 109 
L 494 744 
Q 775 591 1075 516 
Q 1375 441 1709 441 
Q 2250 441 2565 725 
Q 2881 1009 2881 1497 
Q 2881 1984 2565 2268 
Q 2250 2553 1709 2553 
Q 1456 2553 1204 2497 
Q 953 2441 691 2322 
L 691 4666 
z
" transform="scale(0.015625)"/>
       </defs>
       <use xlink:href="#DejaVuSans-2212"/>
       <use xlink:href="#DejaVuSans-35" transform="translate(83.789062 0)"/>
      </g>
     </g>
    </g>
    <g id="ytick_3">
     <g id="line2d_10">
      <g>
       <use xlink:href="#me63f730ed0" x="46.64" y="256.131429" style="stroke: #000000; stroke-width: 0.8"/>
      </g>
     </g>
     <g id="text_11">
      <!-- −4 -->
      <g transform="translate(24.897813 259.930647) scale(0.1 -0.1)">
       <use xlink:href="#DejaVuSans-2212"/>
       <use xlink:href="#DejaVuSans-34" transform="translate(83.789062 0)"/>
      </g>
     </g>
    </g>
    <g id="ytick_4">
     <g id="line2d_11">
      <g>
       <use xlink:href="#me63f730ed0" x="46.64" y="229.377143" style="stroke: #000000; stroke-width: 0.8"/>
      </g>
     </g>
     <g id="text_12">
      <!-- −3 -->
      <g transform="translate(24.897813 233.176362) scale(0.1 -0.1)">
       <defs>
        <path id="DejaVuSans-33" d="M 2597 2516 
Q 3050 2419 3304 2112 
Q 3559 1806 3559 1356 
Q 3559 666 3084 287 
Q 2609 -91 1734 -91 
Q 1441 -91 1130 -33 
Q 819 25 488 141 
L 488 750 
Q 750 597 1062 519 
Q 1375 441 1716 441 
Q 2309 441 2620 675 
Q 2931 909 2931 1356 
Q 2931 1769 2642 2001 
Q 2353 2234 1838 2234 
L 1294 2234 
L 1294 2753 
L 1863 2753 
Q 2328 2753 2575 2939 
Q 2822 3125 2822 3475 
Q 2822 3834 2567 4026 
Q 2313 4219 1838 4219 
Q 1578 4219 1281 4162 
Q 984 4106 628 3988 
L 628 4550 
Q 988 4650 1302 4700 
Q 1616 4750 1894 4750 
Q 2613 4750 3031 4423 
Q 3450 4097 3450 3541 
Q 3450 3153 3228 2886 
Q 3006 2619 2597 2516 
z
" transform="scale(0.015625)"/>
       </defs>
       <use xlink:href="#DejaVuSans-2212"/>
       <use xlink:href="#DejaVuSans-33" transform="translate(83.789062 0)"/>
      </g>
     </g>
    </g>
    <g id="ytick_5">
     <g id="line2d_12">
      <g>
       <use xlink:href="#me63f730ed0" x="46.64" y="202.622857" style="stroke: #000000; stroke-width: 0.8"/>
      </g>
     </g>
     <g id="text_13">
      <!-- −2 -->
      <g transform="translate(24.897813 206.422076) scale(0.1 -0.1)">
       <use xlink:href="#DejaVuSans-2212"/>
       <use xlink:href="#DejaVuSans-32" transform="translate(83.789062 0)"/>
      </g>
     </g>
    </g>
    <g id="ytick_6">
     <g id="line2d_13">
      <g>
       <use xlink:href="#me63f730ed0" x="46.64" y="175.868571" style="stroke: #000000; stroke-width: 0.8"/>
      </g>
     </g>
     <g id="text_14">
      <!-- −1 -->
      <g transform="translate(24.897813 179.66779) scale(0.1 -0.1)">
       <use xlink:href="#DejaVuSans-2212"/>
       <use xlink:href="#DejaVuSans-31" transform="translate(83.789062 0)"/>
      </g>
     </g>
    </g>
    <g id="ytick_7">
     <g id="line2d_14">
      <g>
       <use xlink:href="#me63f730ed0" x="46.64" y="149.114286" style="stroke: #000000; stroke-width: 0.8"/>
      </g>
     </g>
     <g id="text_15">
      <!-- 0 -->
      <g transform="translate(33.2775 152.913504) scale(0.1 -0.1)">
       <use xlink:href="#DejaVuSans-30"/>
      </g>
     </g>
    </g>
    <g id="ytick_8">
     <g id="line2d_15">
      <g>
       <use xlink:href="#me63f730ed0" x="46.64" y="122.36" style="stroke: #000000; stroke-width: 0.8"/>
      </g>
     </g>
     <g id="text_16">
      <!-- 1 -->
      <g transform="translate(33.2775 126.159219) scale(0.1 -0.1)">
       <use xlink:href="#DejaVuSans-31"/>
      </g>
     </g>
    </g>
    <g id="text_17">
     <!-- y exponent -->
     <g transform="translate(18.818125 244.104688) rotate(-90) scale(0.1 -0.1)">
      <defs>
       <path id="DejaVuSans-79" d="M 2059 -325 
Q 1816 -950 1584 -1140 
Q 1353 -1331 966 -1331 
L 506 -1331 
L 506 -850 
L 844 -850 
Q 1081 -850 1212 -737 
Q 1344 -625 1503 -206 
L 1606 56 
L 191 3500 
L 800 3500 
L 1894 763 
L 2988 3500 
L 3597 3500 
L 2059 -325 
z
" transform="scale(0.015625)"/>
      </defs>
      <use xlink:href="#DejaVuSans-79"/>
      <use xlink:href="#DejaVuSans-20" transform="translate(59.179688 0)"/>
      <use xlink:href="#DejaVuSans-65" transform="translate(90.966797 0)"/>
      <use xlink:href="#DejaVuSans-78" transform="translate(150.740234 0)"/>
      <use xlink:href="#DejaVuSans-70" transform="translate(209.919922 0)"/>
      <use xlink:href="#DejaVuSans-6f" transform="translate(273.396484 0)"/>
      <use xlink:href="#DejaVuSans-6e" transform="translate(334.578125 0)"/>
      <use xlink:href="#DejaVuSans-65" transform="translate(397.957031 0)"/>
      <use xlink:href="#DejaVuSans-6e" transform="translate(459.480469 0)"/>
      <use xlink:href="#DejaVuSans-74" transform="translate(522.859375 0)"/>
     </g>
    </g>
   </g>
   <g id="patch_83">
    <path d="M 46.64 309.64 
L 46.64 122.36 
" style="fill: none; stroke: #000000; stroke-width: 0.8; stroke-linejoin: miter; stroke-linecap: square"/>
   </g>
   <g id="patch_84">
    <path d="M 421.2 309.64 
L 421.2 122.36 
" style="fill: none; stroke: #000000; stroke-width: 0.8; stroke-linejoin: miter; stroke-linecap: square"/>
   </g>
   <g id="patch_85">
    <path d="M 46.64 309.64 
L 421.2 309.64 
" style="fill: none; stroke: #000000; stroke-width: 0.8; stroke-linejoin: miter; stroke-linecap: square"/>
   </g>
   <g id="patch_86">
    <path d="M 46.64 122.36 
L 421.2 122.36 
" style="fill: none; stroke: #000000; stroke-width: 0.8; stroke-linejoin: miter; stroke-linecap: square"/>
   </g>
  </g>
 </g>
 <defs>
  <clipPath id="p420dc2eec4">
   <rect x="46.64" y="122.36" width="374.56" height="187.28"/>
  </clipPath>
 </defs>
</svg>
